REM GENRE Classical
REM DATE 1980
REM DISCID 260B5B03
REM COMMENT "ExactAudioCopy v1.1"
PERFORMER "Steve Reich"
TITLE "Music for a Large Ensemble - Violin Phase - Octet"
FILE "01 - Music for a Large Ensemble.wav" WAVE
  TRACK 01 AUDIO
    TITLE "Music for a Large Ensemble"
    PERFORMER "Steve Reich"
    PREGAP 00:00:33
    INDEX 01 00:00:00
  TRACK 02 AUDIO
    TITLE "Violin Phase"
    PERFORMER "Steve Reich"
    INDEX 00 15:28:00
FILE "02 - Violin Phase.wav" WAVE
    INDEX 01 00:00:00
  TRACK 03 AUDIO
    TITLE "Octet"
    PERFORMER "Steve Reich"
    INDEX 00 15:09:37
FILE "03 - Octet.wav" WAVE
    INDEX 01 00:00:00
